<svg width="172" height="42" viewBox="0 0 172 42" fill="none" xmlns="http://www.w3.org/2000/svg">
<path d="M69.16 32.252C67.408 32.252 65.824 31.952 64.408 31.352C63.016 30.752 61.912 29.888 61.096 28.76C60.28 27.632 59.86 26.3 59.836 24.764H65.236C65.308 25.796 65.668 26.612 66.316 27.212C66.988 27.812 67.9 28.112 69.052 28.112C70.228 28.112 71.152 27.836 71.824 27.284C72.496 26.708 72.832 25.964 72.832 25.052C72.832 24.308 72.604 23.696 72.148 23.216C71.692 22.736 71.116 22.364 70.42 22.1C69.748 21.812 68.812 21.5 67.612 21.164C65.98 20.684 64.648 20.216 63.616 19.76C62.608 19.28 61.732 18.572 60.988 17.636C60.268 16.676 59.908 15.404 59.908 13.82C59.908 12.332 60.28 11.036 61.024 9.932C61.768 8.828 62.812 7.988 64.156 7.412C65.5 6.812 67.036 6.512 68.764 6.512C71.356 6.512 73.456 7.148 75.064 8.42C76.696 9.668 77.596 11.42 77.764 13.676H72.22C72.172 12.812 71.8 12.104 71.104 11.552C70.432 10.976 69.532 10.688 68.404 10.688C67.42 10.688 66.628 10.94 66.028 11.444C65.452 11.948 65.164 12.68 65.164 13.64C65.164 14.312 65.38 14.876 65.812 15.332C66.268 15.764 66.82 16.124 67.468 16.412C68.14 16.676 69.076 16.988 70.276 17.348C71.908 17.828 73.24 18.308 74.272 18.788C75.304 19.268 76.192 19.988 76.936 20.948C77.68 21.908 78.052 23.168 78.052 24.728C78.052 26.072 77.704 27.32 77.008 28.472C76.312 29.624 75.292 30.548 73.948 31.244C72.604 31.916 71.008 32.252 69.16 32.252ZM91.2775 32.324C89.3575 32.324 87.6295 31.904 86.0935 31.064C84.5575 30.2 83.3455 28.988 82.4575 27.428C81.5935 25.868 81.1615 24.068 81.1615 22.028C81.1615 19.988 81.6055 18.188 82.4935 16.628C83.4055 15.068 84.6415 13.868 86.2015 13.028C87.7615 12.164 89.5015 11.732 91.4215 11.732C93.3415 11.732 95.0815 12.164 96.6415 13.028C98.2015 13.868 99.4255 15.068 100.314 16.628C101.226 18.188 101.682 19.988 101.682 22.028C101.682 24.068 101.214 25.868 100.277 27.428C99.3655 28.988 98.1175 30.2 96.5335 31.064C94.9735 31.904 93.2215 32.324 91.2775 32.324ZM91.2775 27.932C92.1895 27.932 93.0415 27.716 93.8335 27.284C94.6495 26.828 95.2975 26.156 95.7775 25.268C96.2575 24.38 96.4975 23.3 96.4975 22.028C96.4975 20.132 95.9935 18.68 94.9855 17.672C94.0015 16.64 92.7895 16.124 91.3495 16.124C89.9095 16.124 88.6975 16.64 87.7135 17.672C86.7535 18.68 86.2735 20.132 86.2735 22.028C86.2735 23.924 86.7415 25.388 87.6775 26.42C88.6375 27.428 89.8375 27.932 91.2775 27.932ZM110.419 5.36V32H105.379V5.36H110.419ZM114.102 21.956C114.102 19.94 114.498 18.152 115.29 16.592C116.106 15.032 117.198 13.832 118.566 12.992C119.958 12.152 121.506 11.732 123.21 11.732C124.698 11.732 125.994 12.032 127.098 12.632C128.226 13.232 129.126 13.988 129.798 14.9V12.056H134.874V32H129.798V29.084C129.15 30.02 128.25 30.8 127.098 31.424C125.97 32.024 124.662 32.324 123.174 32.324C121.494 32.324 119.958 31.892 118.566 31.028C117.198 30.164 116.106 28.952 115.29 27.392C114.498 25.808 114.102 23.996 114.102 21.956ZM129.798 22.028C129.798 20.804 129.558 19.76 129.078 18.896C128.598 18.008 127.95 17.336 127.134 16.88C126.318 16.4 125.442 16.16 124.506 16.16C123.57 16.16 122.706 16.388 121.914 16.844C121.122 17.3 120.474 17.972 119.97 18.86C119.49 19.724 119.25 20.756 119.25 21.956C119.25 23.156 119.49 24.212 119.97 25.124C120.474 26.012 121.122 26.696 121.914 27.176C122.73 27.656 123.594 27.896 124.506 27.896C125.442 27.896 126.318 27.668 127.134 27.212C127.95 26.732 128.598 26.06 129.078 25.196C129.558 24.308 129.798 23.252 129.798 22.028ZM148.941 16.196H145.449V32H140.337V16.196H138.069V12.056H140.337V11.048C140.337 8.6 141.033 6.8 142.425 5.648C143.817 4.496 145.917 3.956 148.725 4.028V8.276C147.501 8.252 146.649 8.456 146.169 8.888C145.689 9.32 145.449 10.1 145.449 11.228V12.056H148.941V16.196ZM171.287 12.056L158.939 41.432H153.575L157.895 31.496L149.903 12.056H155.555L160.703 25.988L165.923 12.056H171.287Z" fill="white"/>
<path d="M16.4992 2H37.5808L22.0816 24.9729H1L16.4992 2Z" fill="#EBFA9E"/>
<path d="M17.4226 27.1061L11.4194 36.0042H33.501L49.0002 13.0312H32.7026L23.2066 27.1061H17.4226Z" fill="white"/>
</svg>
